<svg xmlns="http://www.w3.org/2000/svg" xmlns:xlink="http://www.w3.org/1999/xlink" version="1.1" id="Layer_1" x="0px" y="0px" style="enable-background:new 0 0 1920 1080;" xml:space="preserve" viewBox="339 428 1293.58 229">
<style type="text/css">
	.st0{fill:#FF8000;}
	.st1{fill:#FFFFFF;}
	.st2{fill:#1D2228;}
</style>
<polygon class="st0" points="339,428 339,435 339,648 339,657 568,657 568,428 "/>
<path class="st1" d="M484.35,512.61H368.48v-33.1h115.86V512.61z"/>
<path class="st2" d="M534,512.61h-33.1v-33.1H534V512.61z"/>
<polygon class="st2" points="451.24,562.2 401.59,562.2 401.59,611.85 368.48,611.85 368.48,529.09 451.24,529.09 "/>
<g>
	<path class="st0" d="M730.63,481.81v26.09h-67.05v25.97h56.18v26.09h-56.18v52.42h-26.72V481.81H730.63z"/>
	<path class="st0" d="M771.09,481.81v130.57h-26.72V481.81H771.09z"/>
	<path class="st0" d="M891.69,481.81v25.97h-39.95v104.61h-26.97V507.77h-39.95v-25.97H891.69z"/>
	<path class="st0" d="M994.07,481.81v130.57h-26.72V481.81H994.07z"/>
	<path class="st0" d="M1007.81,612.38V481.81l77.53,70.35v-70.35h27.09v130.57l-77.91-70.71v70.71H1007.81z"/>
	<path class="st0" d="M1140.4,604.7c-6.08-2.84-10.78-5.77-14.11-8.78l9.36-9.51l8.99-9.88c1.75,1.63,4.16,3.13,7.24,4.51   c7.66,3.58,16.31,5.36,25.97,5.36c15.48,0,23.85-4.14,25.1-12.44v-0.61c0-2.36-0.87-4.59-2.62-6.71   c-4.08-4.47-11.57-6.71-22.47-6.71c-19.14,0-33.25-5.16-42.33-15.48c-6.24-6.58-9.36-14.22-9.36-22.92c0-1.63,0.13-3.25,0.38-4.88   c1.41-10.32,6.7-18.78,15.86-25.36c9.32-6.34,21.14-9.51,35.46-9.51c13.73,0,26.22,2.56,37.46,7.68c6.07,2.85,10.78,5.81,14.11,8.9   l-18.35,19.02c0-0.49-2.41-1.91-7.24-4.27c-7.66-3.49-16.32-5.24-25.97-5.24c-15.48,0-23.72,3.98-24.72,11.95v1.71   c0,2.11,0.75,3.98,2.25,5.61c4.08,4.47,11.57,6.71,22.47,6.71c19.06,0,33.29,5.16,42.7,15.48c5.99,6.83,8.99,14.47,8.99,22.92   c0,1.87-0.13,3.62-0.37,5.24c-1.17,10.32-6.45,18.65-15.86,24.99c-9.32,6.58-21.14,9.88-35.46,9.88   C1164.13,612.38,1151.64,609.82,1140.4,604.7z"/>
	<path class="st0" d="M1270,481.81v130.57h-26.72V481.81H1270z"/>
	<path class="st0" d="M1337.42,481.81c11.07,0,22.14,2.68,33.21,8.05c22.39,10.81,33.59,29.83,33.59,57.06   c0,27.23-11.2,46.37-33.59,57.42c-11.07,5.36-22.14,8.05-33.21,8.05h-53.69V481.81H1337.42z M1337.42,586.41   c6.49,0,13.11-1.67,19.85-5c13.48-6.58,20.23-18.08,20.23-34.5c0-16.17-6.74-27.55-20.23-34.14c-6.74-3.25-13.36-4.88-19.85-4.88   h-26.97v78.51H1337.42z"/>
	<path class="st0" d="M1511.72,481.81v26.09h-67.05v25.97h56.18v26.09h-56.18v26.46h67.05v25.97h-93.77V481.81H1511.72z"/>
	<path class="st0" d="M1632.58,533.87c0,19.51-7.33,33.85-21.97,43.04l13.23,35.48h-28.47l-10.11-26.7   c-2.58,0.24-4.62,0.37-6.12,0.37h-26.97v26.33h-26.72V481.44h53.69c8.91,0,17.81,2.24,26.72,6.71   C1623.67,496.84,1632.58,512.08,1632.58,533.87z M1579.14,559.96c4.33,0,8.78-1.05,13.36-3.17c8.91-4.47,13.36-12.11,13.36-22.92   c0-10.97-4.45-18.57-13.36-22.8c-4.58-2.36-9.03-3.54-13.36-3.54h-26.97v52.42H1579.14z"/>
</g>
<path class="st1" d="M534,611.85h-33.1v-82.76H534V611.85z"/>
</svg>